<?xml version="1.0" encoding="UTF-8" standalone="no"?>
<svg
        xmlns="http://www.w3.org/2000/svg"
        version="1.1"
        id="svg2"
        xml:space="preserve"
        width="1333.3333"
        height="1333.3333"
        viewBox="0 0 1333.3333 1333.3333">
    <defs
            id="defs6"><clipPath
       clipPathUnits="userSpaceOnUse"
       id="clipPath18"><path
         d="M 0,1000 H 1000 V 0 H 0 Z"
         id="path16" /></clipPath>
    </defs>
    <g
            id="g10"
            transform="matrix(1.3333333,0,0,-1.3333333,0,1333.3333)"><g
       id="g12"><g
         id="g14"
         clip-path="url(#clipPath18)"><g
           id="g20"
           transform="translate(874.0195,579.2559)">
        <path
             d="m 0,0 c -4.824,19.705 -23.696,32.496 -43.856,30.28 -76.103,-8.391 -141.927,-38.75 -192.211,-89.034 -37.415,-37.398 -63.61,-82.89 -78.161,-135.594 0.88,-0.722 1.729,-1.508 2.562,-2.326 l 7.228,-7.227 h 21.81 c 12.996,47.502 36.441,88.358 69.896,121.812 C -159.337,-28.678 -85.75,-0.409 0.079,-0.33 0.048,-0.22 0.031,-0.11 0,0 m -280.286,-405.163 c -10.418,41.72 -15.132,81.931 -14.095,120.1 l -30.893,30.877 -0.126,0.142 c -0.016,-0.048 -0.016,-0.095 -0.016,-0.142 -5.17,-50.016 -0.77,-103.38 13.121,-158.976 4.494,-17.992 9.963,-36.031 16.342,-54.055 10.89,2.199 21.606,4.871 32.15,7.983 -6.473,18.039 -11.989,36.094 -16.483,54.071"
             style="fill:#046937;fill-opacity:1;fill-rule:nonzero;stroke:none"
             id="path22" /></g><g
            id="g24"
            transform="translate(647.0977,187.4336)"><path
             d="m 0,0 c -6.411,25.676 -10.387,50.582 -11.896,74.546 -3.284,-1.525 -6.882,-2.326 -10.622,-2.326 -6.71,0 -13.027,2.609 -17.772,7.37 l -5.107,5.107 c 0.911,-29.715 5.389,-60.703 13.388,-92.696 4.368,-17.474 9.742,-35.025 16.06,-52.578 10.402,3.724 20.6,7.904 30.562,12.493 C 8.878,-32.025 3.991,-15.981 0,0 m 216.63,363.38 c -6.254,3.866 -13.687,5.359 -21.01,4.683 C 129.245,362.029 72.346,336.793 29.746,294.177 0.424,264.855 -20.538,229.217 -32.842,187.921 H 1.807 c 11,32.024 28.159,59.822 51.258,82.921 42.946,42.946 103.24,65.652 174.329,65.652 2.876,0 5.751,-0.031 8.658,-0.125 -0.896,4.321 -6.003,18.683 -19.422,27.011"
             style="fill:#046937;fill-opacity:1;fill-rule:nonzero;stroke:none"
             id="path26" /></g><g
            id="g28"
            transform="translate(851.6279,501.1738)"><path
             d="m 0,0 c -54.81,-4.164 -101.354,-23.9 -135.908,-58.455 -19.029,-19.029 -33.566,-41.689 -43.449,-67.364 h 35.937 c 7.842,16.561 18.149,31.333 30.847,44.029 32.826,32.826 79.385,49.64 135.17,49.64 3.393,0 6.835,-0.063 10.292,-0.189 0,0.064 0,0.126 0.015,0.189 C 33.753,-13.765 18.338,1.398 0,0 m -151.167,-300.415 c -11.424,45.695 -13.906,87.698 -7.746,124.311 h -33.44 c -5.782,-39.724 -2.828,-84.351 9.162,-132.309 3.614,-14.473 7.998,-29.008 13.121,-43.575 9.947,5.296 19.627,11 29.008,17.129 -3.882,11.517 -7.245,23.005 -10.105,34.444"
             style="fill:#046937;fill-opacity:1;fill-rule:nonzero;stroke:none"
             id="path30" /></g><g
            id="g32"
            transform="translate(456.5366,323.1533)"><path
             d="m 0,0 -31.129,-31.129 c 0.88,-37.761 -3.834,-77.485 -14.142,-118.686 -4.479,-17.914 -9.963,-35.89 -16.421,-53.867 10.559,-3.08 21.308,-5.688 32.229,-7.826 6.332,17.914 11.738,35.828 16.201,53.695 C 0.534,-102.627 4.965,-49.688 0,0 m -89.474,196.595 c -50.881,50.881 -117.68,81.365 -194.961,89.317 -19.94,2.058 -38.436,-11.079 -43.15,-30.579 -0.031,-0.11 -0.047,-0.22 -0.079,-0.331 0.551,0.016 1.085,0.016 1.635,0.016 86.001,0 159.73,-28.268 213.22,-81.758 33.266,-33.267 56.648,-73.887 69.69,-121.059 h 26.682 l 5.909,5.893 c -14.378,53.945 -40.856,100.411 -78.946,138.501 M -6.757,42.615 H -7.26 l 0.629,-0.628 c -0.032,0.22 -0.079,0.424 -0.126,0.628"
             style="fill:#046937;fill-opacity:1;fill-rule:nonzero;stroke:none"
             id="path34" /></g><g
            id="g36"
            transform="translate(289.2793,441.9805)"><path
             d="m 0,0 c -34.932,34.932 -82.136,54.716 -137.731,58.581 -18.385,1.288 -33.769,-13.938 -32.905,-32.354 l 0.016,-0.205 c 4.101,0.189 8.14,0.267 12.131,0.267 55.768,0 102.344,-16.813 135.154,-49.624 12.508,-12.508 22.691,-27.027 30.501,-43.291 h 36 C 33.282,-41.265 18.841,-18.856 0,0 m 56.334,-116.91 h -33.47 c 6.348,-36.786 3.912,-79.057 -7.59,-125.067 -2.892,-11.564 -6.301,-23.177 -10.23,-34.821 9.413,-6.065 19.108,-11.723 29.055,-16.939 5.154,14.63 9.554,29.227 13.184,43.762 12.052,48.257 14.975,93.152 9.051,133.065"
             style="fill:#046937;fill-opacity:1;fill-rule:nonzero;stroke:none"
             id="path38" /></g><g
            id="g40"
            transform="translate(281.5796,638.7324)"><path
             d="m 0,0 v -35.749 c -41.249,17.993 -87.164,28.112 -136.615,29.888 0.047,0.11 0.094,0.22 0.141,0.33 8.077,19.674 28.646,31.364 49.687,28.284 C -56.318,18.307 -27.311,10.686 0,0"
             style="fill:#046937;fill-opacity:1;fill-rule:nonzero;stroke:none"
             id="path42" /></g><g
            id="g44"
            transform="translate(856.3262,633.5469)"><path
             d="M 0,0 C -48.744,-2.011 -94.047,-12.131 -134.762,-29.935 V 5.83 c 26.699,10.465 55.031,18.008 84.761,22.518 21.119,3.205 41.735,-8.266 49.859,-28.018 z"
             style="fill:#046937;fill-opacity:1;fill-rule:nonzero;stroke:none"
             id="path46" /></g><g
            id="g48"
            transform="translate(395.7246,262.3408)"><path
             d="m 0,0 c -4.746,-4.746 -11.063,-7.354 -17.772,-7.354 -3.175,0 -6.255,0.582 -9.13,1.712 -1.603,-23.302 -5.532,-47.486 -11.754,-72.408 -3.991,-15.981 -8.878,-32.025 -14.614,-48.085 9.963,-4.588 20.161,-8.767 30.563,-12.492 6.317,17.553 11.691,35.105 16.06,52.578 7.998,32.025 12.477,63.06 13.404,92.806 z m -68.402,216.127 c -42.6,42.616 -99.5,67.852 -165.875,73.886 -7.322,0.676 -14.755,-0.817 -21.009,-4.682 -13.42,-8.329 -18.526,-22.691 -19.422,-27.013 2.907,0.095 5.782,0.126 8.658,0.126 71.089,0 131.383,-22.706 174.328,-65.652 22.346,-22.345 39.128,-49.074 50.143,-79.778 h 34.806 c -12.414,39.975 -33.061,74.546 -61.629,103.113"
             style="fill:#046937;fill-opacity:1;fill-rule:nonzero;stroke:none"
             id="path50" /></g><g
            id="g52"
            transform="translate(400.6587,325.0703)"><path
             d="M 0,0 -0.723,-0.723 C -0.754,-0.487 -0.786,-0.236 -0.817,0 Z"
             style="fill:#231f20;fill-opacity:1;fill-rule:nonzero;stroke:none"
             id="path54" /></g><g
            id="g56"
            transform="translate(445.1284,325.0703)"><path
             d="m 0,0 -20.239,-20.239 -22.235,-22.236 -13.593,-13.592 c -5.358,-5.342 -13.592,-6.034 -19.689,-2.058 -0.911,0.581 -1.76,1.272 -2.546,2.058 -3.064,3.064 -4.604,7.087 -4.604,11.11 0,4.022 1.54,8.045 4.604,11.125 L -45.193,-0.723 -44.47,0 Z"
             style="fill:#046937;fill-opacity:1;fill-rule:nonzero;stroke:none"
             id="path58" /></g><g
            id="g60"
            transform="translate(480.7202,334.3408)"><path
             d="m 0,0 h -179.231 c -5.626,0 -10.544,2.955 -13.31,7.386 -1.524,2.404 -2.404,5.264 -2.404,8.328 v 0.204 c 0.063,4.274 1.807,8.124 4.604,10.906 2.829,2.844 6.757,4.604 11.11,4.604 H -31.443 L -30.815,30.8 -5.61,5.61 Z"
             style="fill:#046937;fill-opacity:1;fill-rule:nonzero;stroke:none"
             id="path62" /></g><g
            id="g64"
            transform="translate(524.3887,319.2871)"><path
             d="M 0,0 C -0.33,-3.944 -0.597,-7.888 -0.817,-11.863 V -214.886 H -44.816 V -7.903 c -0.298,4.588 -0.675,9.145 -1.131,13.686 h 12.383 c 6.835,-4.84 14.991,-7.448 23.523,-7.448 C -6.05,-1.665 -3.725,-1.1 0,0"
             style="fill:#f79321;fill-opacity:1;fill-rule:nonzero;stroke:none"
             id="path66" /></g><g
            id="g68"
            transform="translate(575.333,476.3467)"><path
             d="m 0,0 c -15.384,-25.189 -27.358,-52.657 -35.828,-82.246 -1.98,0.299 -3.991,0.44 -6.034,0.44 -10.906,0 -21.166,-4.243 -28.882,-11.959 l -0.503,-0.502 c -7.684,7.542 -17.835,11.706 -28.63,11.706 -3.85,0 -7.605,-0.534 -11.204,-1.571 -8.564,30.296 -20.789,58.361 -36.566,84.053 l 26.808,19.47 c 8.847,-14.159 18.243,-28.961 25.079,-44.423 v 38.593 h 43.998 v -38.498 c 6.789,15.446 16.17,30.249 24.97,44.406 z"
             style="fill:#f79321;fill-opacity:1;fill-rule:nonzero;stroke:none"
             id="path70" /></g><g
            id="g72"
            transform="translate(525.1426,804.7397)"><path
             d="m 0,0 v 25.337 c 0,8.778 -3.239,17.247 -9.098,23.785 l -12.639,14.103 c -0.979,1.092 -2.688,1.092 -3.667,0 L -38.042,49.122 c -5.859,-6.538 -9.099,-15.007 -9.099,-23.785 V 0 c 0,-8.778 3.24,-17.248 9.099,-23.785 l 12.638,-14.103 c 0.979,-1.092 2.688,-1.092 3.667,0 l 12.639,14.103 C -3.239,-17.248 0,-8.778 0,0"
             style="fill:#f79321;fill-opacity:1;fill-rule:nonzero;stroke:none"
             id="path74" /></g><g
            id="g76"
            transform="translate(645.501,784.8354)"><path
             d="m 0,0 v 25.337 c 0,8.778 -3.239,17.248 -9.098,23.785 l -12.639,14.103 c -0.979,1.092 -2.689,1.092 -3.666,0 l -12.64,-14.103 c -5.858,-6.537 -9.098,-15.007 -9.098,-23.785 V 0 c 0,-8.778 3.24,-17.248 9.098,-23.785 l 12.64,-14.103 c 0.977,-1.091 2.687,-1.091 3.666,0 l 12.639,14.103 C -3.239,-17.248 0,-8.778 0,0"
             style="fill:#f79321;fill-opacity:1;fill-rule:nonzero;stroke:none"
             id="path78" /></g><g
            id="g80"
            transform="translate(559.5654,739.1812)"><path
             d="m 0,0 17.916,17.916 c 6.207,6.207 9.905,14.487 10.385,23.252 l 1.035,18.909 c 0.08,1.464 -1.129,2.673 -2.593,2.593 L 7.834,61.635 C -0.932,61.155 -9.211,57.457 -15.418,51.25 L -33.334,33.333 c -6.207,-6.207 -9.905,-14.486 -10.385,-23.251 l -1.036,-18.91 c -0.08,-1.464 1.13,-2.672 2.594,-2.592 l 18.909,1.035 C -14.487,-9.905 -6.207,-6.208 0,0"
             style="fill:#f79321;fill-opacity:1;fill-rule:nonzero;stroke:none"
             id="path82" /></g><g
            id="g84"
            transform="translate(559.5654,664.3447)"><path
             d="m 0,0 17.916,17.916 c 6.207,6.207 9.905,14.487 10.385,23.252 l 1.035,18.909 c 0.08,1.464 -1.129,2.673 -2.593,2.593 L 7.834,61.635 C -0.932,61.155 -9.211,57.457 -15.418,51.25 L -33.334,33.334 c -6.207,-6.208 -9.905,-14.487 -10.385,-23.252 l -1.036,-18.91 c -0.08,-1.464 1.13,-2.672 2.594,-2.592 l 18.909,1.035 C -14.487,-9.905 -6.207,-6.207 0,0"
             style="fill:#f79321;fill-opacity:1;fill-rule:nonzero;stroke:none"
             id="path86" /></g><g
            id="g88"
            transform="translate(559.5654,589.5083)"><path
             d="m 0,0 17.916,17.916 c 6.207,6.207 9.905,14.487 10.385,23.252 l 1.035,18.909 c 0.08,1.464 -1.129,2.673 -2.593,2.593 L 7.834,61.635 C -0.932,61.155 -9.211,57.457 -15.418,51.25 L -33.334,33.334 c -6.207,-6.207 -9.905,-14.487 -10.385,-23.252 l -1.036,-18.909 c -0.08,-1.465 1.13,-2.673 2.594,-2.593 l 18.909,1.035 C -14.487,-9.905 -6.207,-6.207 0,0"
             style="fill:#f79321;fill-opacity:1;fill-rule:nonzero;stroke:none"
             id="path90" /></g><g
            id="g92"
            transform="translate(559.5654,514.6719)"><path
             d="m 0,0 17.916,17.916 c 6.207,6.207 9.905,14.487 10.385,23.252 l 1.035,18.91 c 0.08,1.464 -1.129,2.672 -2.593,2.592 L 7.834,61.635 C -0.932,61.155 -9.211,57.457 -15.418,51.25 L -33.334,33.334 c -6.207,-6.207 -9.905,-14.487 -10.385,-23.252 l -1.036,-18.909 c -0.08,-1.464 1.13,-2.673 2.594,-2.593 l 18.909,1.035 C -14.487,-9.905 -6.207,-6.207 0,0"
             style="fill:#f79321;fill-opacity:1;fill-rule:nonzero;stroke:none"
             id="path94" /></g><g
            id="g96"
            transform="translate(670.085,710.6938)"><path
             d="m 0,0 17.916,17.916 c 6.208,6.207 9.905,14.487 10.386,23.252 l 1.035,18.909 c 0.08,1.465 -1.129,2.673 -2.593,2.593 L 7.835,61.635 C -0.931,61.155 -9.21,57.457 -15.418,51.25 L -33.333,33.334 c -6.208,-6.207 -9.905,-14.487 -10.386,-23.252 l -1.035,-18.909 c -0.08,-1.464 1.129,-2.673 2.593,-2.593 l 18.909,1.035 C -14.486,-9.905 -6.207,-6.207 0,0"
             style="fill:#f79321;fill-opacity:1;fill-rule:nonzero;stroke:none"
             id="path98" /></g><g
            id="g100"
            transform="translate(670.085,636.8242)"><path
             d="m 0,0 17.916,17.916 c 6.208,6.207 9.905,14.487 10.386,23.252 l 1.035,18.909 c 0.08,1.465 -1.129,2.673 -2.593,2.593 L 7.835,61.635 C -0.931,61.155 -9.21,57.457 -15.418,51.25 L -33.333,33.334 c -6.208,-6.207 -9.905,-14.487 -10.386,-23.252 l -1.035,-18.909 c -0.08,-1.464 1.129,-2.673 2.593,-2.593 l 18.909,1.035 C -14.486,-9.905 -6.207,-6.207 0,0"
             style="fill:#f79321;fill-opacity:1;fill-rule:nonzero;stroke:none"
             id="path102" /></g><g
            id="g104"
            transform="translate(670.085,562.9546)"><path
             d="m 0,0 17.916,17.916 c 6.208,6.207 9.905,14.487 10.386,23.252 l 1.035,18.909 c 0.08,1.465 -1.129,2.673 -2.593,2.593 L 7.835,61.635 C -0.931,61.155 -9.21,57.457 -15.418,51.25 L -33.333,33.334 c -6.208,-6.207 -9.905,-14.487 -10.386,-23.252 l -1.035,-18.909 c -0.08,-1.464 1.129,-2.673 2.593,-2.593 l 18.909,1.035 C -14.486,-9.905 -6.207,-6.207 0,0"
             style="fill:#f79321;fill-opacity:1;fill-rule:nonzero;stroke:none"
             id="path106" /></g><g
            id="g108"
            transform="translate(359.043,784.8354)"><path
             d="m 0,0 v 25.337 c 0,8.778 3.24,17.248 9.099,23.785 l 12.638,14.103 c 0.979,1.092 2.689,1.092 3.667,0 L 38.043,49.122 c 5.859,-6.537 9.099,-15.007 9.099,-23.785 L 47.142,0 c 0,-8.778 -3.24,-17.248 -9.099,-23.785 L 25.404,-37.888 c -0.978,-1.091 -2.688,-1.091 -3.667,0 L 9.099,-23.785 C 3.24,-17.248 0,-8.778 0,0"
             style="fill:#f79321;fill-opacity:1;fill-rule:nonzero;stroke:none"
             id="path110" /></g><g
            id="g112"
            transform="translate(444.979,739.1812)"><path
             d="m 0,0 -17.916,17.916 c -6.207,6.207 -9.905,14.487 -10.385,23.252 l -1.035,18.909 c -0.08,1.464 1.129,2.673 2.593,2.593 L -7.834,61.635 C 0.931,61.155 9.211,57.457 15.418,51.25 L 33.334,33.333 c 6.208,-6.207 9.905,-14.486 10.385,-23.251 l 1.035,-18.91 c 0.08,-1.464 -1.129,-2.672 -2.592,-2.592 l -18.91,1.035 C 14.487,-9.905 6.208,-6.208 0,0"
             style="fill:#f79321;fill-opacity:1;fill-rule:nonzero;stroke:none"
             id="path114" /></g><g
            id="g116"
            transform="translate(444.979,664.3447)"><path
             d="m 0,0 -17.916,17.916 c -6.207,6.207 -9.905,14.487 -10.385,23.252 l -1.035,18.909 c -0.08,1.464 1.129,2.673 2.593,2.593 L -7.834,61.635 C 0.931,61.155 9.211,57.457 15.418,51.25 L 33.334,33.334 c 6.208,-6.208 9.905,-14.487 10.385,-23.252 l 1.035,-18.91 c 0.08,-1.464 -1.129,-2.672 -2.592,-2.592 l -18.91,1.035 C 14.487,-9.905 6.208,-6.207 0,0"
             style="fill:#f79321;fill-opacity:1;fill-rule:nonzero;stroke:none"
             id="path118" /></g><g
            id="g120"
            transform="translate(444.979,589.5083)"><path
             d="m 0,0 -17.916,17.916 c -6.207,6.207 -9.905,14.487 -10.385,23.252 l -1.035,18.909 c -0.08,1.464 1.129,2.673 2.593,2.593 L -7.834,61.635 C 0.931,61.155 9.211,57.457 15.418,51.25 L 33.334,33.334 c 6.208,-6.207 9.905,-14.487 10.385,-23.252 l 1.035,-18.909 c 0.08,-1.465 -1.129,-2.673 -2.592,-2.593 l -18.91,1.035 C 14.487,-9.905 6.208,-6.207 0,0"
             style="fill:#f79321;fill-opacity:1;fill-rule:nonzero;stroke:none"
             id="path122" /></g><g
            id="g124"
            transform="translate(444.979,514.6719)"><path
             d="m 0,0 -17.916,17.916 c -6.207,6.207 -9.905,14.487 -10.385,23.252 l -1.035,18.91 c -0.08,1.464 1.129,2.672 2.593,2.592 L -7.834,61.635 C 0.931,61.155 9.211,57.457 15.418,51.25 L 33.334,33.334 c 6.208,-6.207 9.905,-14.487 10.385,-23.252 l 1.035,-18.909 c 0.08,-1.464 -1.129,-2.673 -2.592,-2.593 l -18.91,1.035 C 14.487,-9.905 6.208,-6.207 0,0"
             style="fill:#f79321;fill-opacity:1;fill-rule:nonzero;stroke:none"
             id="path126" /></g><g
            id="g128"
            transform="translate(334.459,710.6938)"><path
             d="m 0,0 -17.916,17.916 c -6.207,6.207 -9.905,14.487 -10.385,23.252 l -1.035,18.909 c -0.081,1.465 1.129,2.673 2.593,2.593 L -7.834,61.635 C 0.931,61.155 9.211,57.457 15.418,51.25 L 33.334,33.334 c 6.207,-6.207 9.905,-14.487 10.385,-23.252 l 1.035,-18.909 c 0.08,-1.464 -1.129,-2.673 -2.592,-2.593 l -18.91,1.035 C 14.487,-9.905 6.208,-6.207 0,0"
             style="fill:#f79321;fill-opacity:1;fill-rule:nonzero;stroke:none"
             id="path130" /></g><g
            id="g132"
            transform="translate(334.459,636.8242)"><path
             d="m 0,0 -17.916,17.916 c -6.207,6.207 -9.905,14.487 -10.385,23.252 l -1.035,18.909 c -0.081,1.465 1.129,2.673 2.593,2.593 L -7.834,61.635 C 0.931,61.155 9.211,57.457 15.418,51.25 L 33.334,33.334 c 6.207,-6.207 9.905,-14.487 10.385,-23.252 l 1.035,-18.909 c 0.08,-1.464 -1.129,-2.673 -2.592,-2.593 l -18.91,1.035 C 14.487,-9.905 6.208,-6.207 0,0"
             style="fill:#f79321;fill-opacity:1;fill-rule:nonzero;stroke:none"
             id="path134" /></g><g
            id="g136"
            transform="translate(334.459,562.9546)"><path
             d="m 0,0 -17.916,17.916 c -6.207,6.207 -9.905,14.487 -10.385,23.252 l -1.035,18.909 c -0.081,1.465 1.129,2.673 2.593,2.593 L -7.834,61.635 C 0.931,61.155 9.211,57.457 15.418,51.25 L 33.334,33.334 c 6.207,-6.207 9.905,-14.487 10.385,-23.252 l 1.035,-18.909 c 0.08,-1.464 -1.129,-2.673 -2.592,-2.593 l -18.91,1.035 C 14.487,-9.905 6.208,-6.207 0,0"
             style="fill:#f79321;fill-opacity:1;fill-rule:nonzero;stroke:none"
             id="path138" /></g><g
            id="g140"
            transform="translate(449.9053,365.1406)"><path
             d="m 0,0 -0.628,0.628 h 0.503 C -0.079,0.424 -0.031,0.22 0,0"
             style="fill:#eb2227;fill-opacity:1;fill-rule:nonzero;stroke:none"
             id="path142" /></g><g
            id="g144"
            transform="translate(723.3174,350.0547)"><path
             d="m 0,0 c 0,-4.337 -1.76,-8.266 -4.604,-11.109 -2.829,-2.844 -6.756,-4.605 -11.109,-4.605 h -97.01 l -4.667,4.667 -18.809,18.81 -7.951,7.951 H -15.713 C -7.023,15.714 0,8.69 0,0"
             style="fill:#046937;fill-opacity:1;fill-rule:nonzero;stroke:none"
             id="path146" /></g><g
            id="g148"
            transform="translate(449.7798,365.7686)"><path
             d="M 0,0 H -0.503 L 0.125,-0.628 C 0.094,-0.408 0.047,-0.204 0,0"
             style="fill:#231f20;fill-opacity:1;fill-rule:nonzero;stroke:none"
             id="path150" /></g><g
            id="g152"
            transform="translate(536.5664,336.2578)"><path
             d="m 0,0 c -0.675,-0.675 -1.383,-1.319 -2.105,-1.917 -2.31,-1.933 -4.84,-3.488 -7.496,-4.651 -4.006,-1.76 -8.312,-2.64 -12.618,-2.64 -7.149,0 -14.284,2.42 -20.098,7.291 -0.738,0.582 -1.446,1.242 -2.121,1.917 l -19.517,19.517 -9.994,9.994 -9.381,9.381 c 0.079,0.079 0.142,0.141 0.22,0.205 3.835,3.787 8.423,6.363 13.263,7.762 2.86,0.832 5.798,1.242 8.737,1.242 7.951,0 15.902,-3.002 21.999,-9.004 0.078,-0.064 0.141,-0.126 0.22,-0.205 z"
             style="fill:#046937;fill-opacity:1;fill-rule:nonzero;stroke:none"
             id="path154" /></g><g
            id="g156"
            transform="translate(635.6895,273.6865)"><path
             d="m 0,0 c -0.33,-0.33 -0.66,-0.629 -1.006,-0.912 -2.907,-2.467 -6.506,-3.692 -10.103,-3.692 -4.024,0 -8.046,1.54 -11.111,4.604 l -11.973,11.974 -21.292,21.292 -27.39,27.388 -2.781,2.783 -19.249,19.249 -9.397,9.396 -10.136,10.136 c 6.128,6.128 14.174,9.208 22.219,9.208 1.179,0 2.358,-0.063 3.521,-0.204 6.835,-0.754 13.467,-3.772 18.699,-9.004 l 0.55,-0.55 0.848,-0.849 47.126,-47.126 2.31,-2.309 L -0.943,23.162 0,22.219 C 6.144,16.091 6.144,6.128 0,0"
             style="fill:#046937;fill-opacity:1;fill-rule:nonzero;stroke:none"
             id="path158" /></g><g
            id="g160"
            transform="translate(65.7334,515.6982)"><path
             d="m 0,0 1.006,10.197 c 0.712,6.521 -0.885,11.52 -4.789,14.999 -3.904,3.476 -8.886,5.514 -14.943,6.112 -6.461,0.638 -11.951,-0.418 -16.469,-3.166 -4.518,-2.749 -7.123,-7.622 -7.815,-14.621 l -1.007,-9.178 z m 4.866,-15.771 -56.535,5.579 c -2.287,0.225 -4.068,1.13 -5.339,2.718 -1.27,1.586 -1.793,3.523 -1.567,5.812 l 1.553,16.769 c 1.183,11.3 5.428,19.715 12.736,25.247 7.308,5.531 16.582,7.743 27.821,6.634 C -5.898,45.945 2.238,41.964 7.943,35.048 13.649,28.13 15.987,19.456 14.958,9.024 L 13.225,-8.542 c -0.034,-0.338 -0.071,-0.707 -0.11,-1.11 -0.04,-0.405 -0.146,-0.802 -0.322,-1.193 -0.475,-1.38 -1.343,-2.603 -2.605,-3.667 C 8.929,-15.577 7.187,-16 4.967,-15.78 Z"
             style="fill:#000000;fill-opacity:1;fill-rule:nonzero;stroke:none"
             id="path162" /></g><g
            id="g164"
            transform="translate(78.292,565.8408)"><path
             d="m 0,0 -54.334,12.683 c -2.436,0.568 -4.315,1.666 -5.638,3.295 -1.321,1.626 -1.674,3.758 -1.059,6.394 l 5.619,24.523 c 0.62,2.355 1.772,3.943 3.457,4.766 1.685,0.821 3.384,1.033 5.096,0.633 0.066,-0.015 0.116,-0.026 0.148,-0.034 0.034,-0.008 0.083,-0.02 0.148,-0.035 1.631,-0.451 2.985,-1.426 4.057,-2.926 1.074,-1.501 1.349,-3.371 0.826,-5.61 l -4.157,-17.364 14.423,-3.367 3.782,16.202 c 0.635,2.421 1.799,4.06 3.491,4.915 1.694,0.855 3.396,1.082 5.108,0.683 0.066,-0.016 0.115,-0.027 0.148,-0.035 0.033,-0.008 0.083,-0.019 0.148,-0.035 1.632,-0.45 2.98,-1.442 4.046,-2.975 1.065,-1.535 1.329,-3.453 0.791,-5.758 l -3.782,-16.202 14.917,-3.482 4.267,18.277 c 0.619,2.355 1.771,3.943 3.456,4.766 1.686,0.821 3.384,1.033 5.096,0.634 0.066,-0.016 0.116,-0.028 0.148,-0.035 0.034,-0.008 0.083,-0.019 0.149,-0.035 1.63,-0.45 2.966,-1.421 4.006,-2.914 1.042,-1.493 1.3,-3.36 0.778,-5.598 L 9.186,5.877 C 8.678,3.704 7.598,2.045 5.941,0.905 4.286,-0.237 2.339,-0.546 0.1,-0.023 Z"
             style="fill:#000000;fill-opacity:1;fill-rule:nonzero;stroke:none"
             id="path166" /></g><g
            id="g168"
            transform="translate(66.1592,634.9038)"><path
             d="m 0,0 3.529,9.727 c 1.149,2.964 1.076,5.688 -0.217,8.172 -1.293,2.483 -3.371,4.245 -6.232,5.283 -2.86,1.038 -5.583,1.018 -8.168,-0.057 -2.585,-1.077 -4.42,-3.109 -5.504,-6.097 L -20.217,7.336 Z M 23.036,-24.547 -30.558,-5.1 c -2.16,0.784 -3.688,2.076 -4.583,3.876 -0.893,1.798 -0.914,3.874 -0.06,6.227 l 6.03,16.914 c 2.602,6.969 6.841,12.013 12.722,15.132 5.879,3.118 12.221,3.443 19.023,0.975 6.93,-2.515 11.582,-6.847 13.954,-12.996 2.374,-6.149 2.371,-12.498 -0.005,-19.046 l -3.84,-10.585 15.575,-5.651 c 2.406,-0.873 3.994,-2.224 4.764,-4.05 0.771,-1.827 0.786,-3.757 0.047,-5.79 -0.738,-2.036 -1.99,-3.506 -3.758,-4.41 -1.767,-0.907 -3.827,-0.932 -6.18,-0.078 z"
             style="fill:#000000;fill-opacity:1;fill-rule:nonzero;stroke:none"
             id="path170" /></g><g
            id="g172"
            transform="translate(94.7314,680.6943)"><path
             d="m 0,0 8.71,17.194 -30.508,4.879 -0.092,-0.181 z m 6.661,-27.483 -40.015,43.129 c -1.655,1.822 -2.778,3.946 -3.37,6.369 -0.592,2.422 -0.308,4.779 0.854,7.073 1.222,2.412 2.956,4.075 5.198,4.986 2.243,0.91 4.649,1.208 7.218,0.892 l 58.125,-7.155 c 0.937,-0.097 1.731,-0.252 2.38,-0.467 0.649,-0.215 1.125,-0.399 1.426,-0.552 1.751,-0.886 2.853,-2.223 3.313,-4.009 0.459,-1.788 0.261,-3.526 -0.595,-5.215 -0.947,-1.87 -2.119,-3.096 -3.511,-3.679 -1.395,-0.584 -2.878,-0.779 -4.45,-0.589 l -9.972,1.64 -12.745,-25.158 7.041,-6.978 c 1.234,-1.156 2.029,-2.469 2.383,-3.937 0.355,-1.469 0.059,-3.139 -0.887,-5.009 -0.917,-1.809 -2.301,-3.081 -4.149,-3.811 -1.849,-0.732 -3.678,-0.639 -5.488,0.278 -0.482,0.244 -0.891,0.488 -1.222,0.732 -0.332,0.243 -0.616,0.501 -0.857,0.776 -0.09,0.12 -0.203,0.234 -0.339,0.342 -0.135,0.106 -0.218,0.205 -0.248,0.296 z"
             style="fill:#000000;fill-opacity:1;fill-rule:nonzero;stroke:none"
             id="path174" /></g><g
            id="g176"
            transform="translate(115.8564,742.0552)"><path
             d="m 0,0 5.953,8.587 c 1.636,2.24 2.301,4.535 1.997,6.887 -0.304,2.349 -1.624,4.335 -3.959,5.953 -2.388,1.656 -4.711,2.196 -6.963,1.618 -2.253,-0.579 -4.169,-2.007 -5.749,-4.285 l -6.036,-8.53 z M 18.427,-31.289 -28.428,1.192 c -1.945,1.348 -3.117,2.982 -3.513,4.904 -0.397,1.92 0.118,3.909 1.544,5.966 l 10.088,14.731 c 4.525,6.408 9.569,10.42 15.133,12.037 5.564,1.615 11.626,0.149 18.184,-4.397 4.557,-3.16 7.117,-7.155 7.676,-11.986 0.559,-4.832 -0.312,-9.619 -2.611,-14.361 l 24.915,3.712 c 1.091,0.149 2.03,0.137 2.814,-0.037 0.786,-0.174 1.483,-0.472 2.094,-0.896 C 49.509,9.747 50.563,8.152 51.06,6.08 51.557,4.007 51.169,2.054 49.897,0.22 49.667,-0.114 49.396,-0.442 49.092,-0.765 48.785,-1.088 48.461,-1.377 48.119,-1.633 47.66,-2.056 47.115,-2.399 46.482,-2.659 45.85,-2.92 45.176,-3.092 44.461,-3.171 L 9.12,-6.075 9.005,-6.242 27.097,-18.783 c 2.112,-1.465 3.309,-3.18 3.592,-5.145 0.284,-1.967 -0.192,-3.838 -1.424,-5.616 -1.234,-1.78 -2.819,-2.881 -4.76,-3.305 -1.94,-0.425 -3.938,0.076 -5.994,1.502 z"
             style="fill:#000000;fill-opacity:1;fill-rule:nonzero;stroke:none"
             id="path178" /></g><g
            id="g180"
            transform="translate(173.2471,763.4971)"><path
             d="m 0,0 -38.239,33.633 -7.304,-8.303 c -1.513,-1.823 -3.135,-2.67 -4.868,-2.54 -1.733,0.128 -3.257,0.725 -4.571,1.791 -0.05,0.044 -0.088,0.078 -0.115,0.101 -0.025,0.022 -0.063,0.055 -0.114,0.1 -1.32,1.161 -2.135,2.667 -2.446,4.516 -0.311,1.848 0.249,3.585 1.678,5.211 l 24.58,28.099 c 1.48,1.58 3.169,2.347 5.063,2.301 1.898,-0.047 3.505,-0.65 4.824,-1.811 0.052,-0.045 0.09,-0.078 0.115,-0.1 0.026,-0.024 0.064,-0.057 0.114,-0.101 1.225,-1.168 2.001,-2.617 2.327,-4.343 0.327,-1.729 -0.292,-3.482 -1.856,-5.259 L -28.19,45.059 10.05,11.426 C 11.98,9.728 12.972,7.887 13.027,5.902 13.083,3.916 12.396,2.112 10.966,0.487 9.536,-1.139 7.835,-2.051 5.858,-2.248 3.882,-2.448 1.955,-1.72 0.076,-0.067 Z"
             style="fill:#000000;fill-opacity:1;fill-rule:nonzero;stroke:none"
             id="path182" /></g><g
            id="g184"
            transform="translate(193.4932,790.0957)"><path
             d="m 0,0 -29.008,49.605 c -0.086,0.104 -0.169,0.256 -0.247,0.455 -0.078,0.199 -0.156,0.399 -0.234,0.599 -0.572,1.638 -0.639,3.543 -0.201,5.714 0.437,2.17 1.565,4.012 3.385,5.526 1.975,1.644 4.152,2.466 6.529,2.464 2.377,-0.002 4.356,-0.532 5.941,-1.589 l 34.833,-23.143 0.156,0.13 -16.496,38.536 c -0.709,1.697 -0.836,3.725 -0.379,6.085 0.455,2.359 1.646,4.339 3.57,5.94 1.819,1.514 3.836,2.289 6.049,2.325 2.214,0.036 4.075,-0.376 5.582,-1.236 0.181,-0.113 0.365,-0.227 0.546,-0.339 0.182,-0.114 0.338,-0.247 0.468,-0.403 L 63.94,53.211 c 0.268,-0.218 0.5,-0.443 0.696,-0.677 0.194,-0.234 0.379,-0.455 0.552,-0.664 1.43,-1.718 2.01,-3.525 1.742,-5.423 -0.268,-1.898 -1.183,-3.495 -2.742,-4.793 -1.977,-1.644 -3.788,-2.403 -5.431,-2.276 -1.646,0.126 -3.355,0.991 -5.129,2.595 L 22.551,69.959 22.396,69.829 40.228,29.37 c 0.165,-0.304 0.292,-0.615 0.382,-0.935 0.09,-0.322 0.171,-0.629 0.24,-0.923 0.276,-1.179 0.232,-2.447 -0.132,-3.805 -0.365,-1.36 -1.354,-2.71 -2.965,-4.051 -1.611,-1.342 -3.119,-2.068 -4.522,-2.179 -1.403,-0.112 -2.658,0.075 -3.765,0.561 -0.278,0.12 -0.566,0.255 -0.864,0.403 -0.299,0.147 -0.561,0.303 -0.786,0.468 L -8.795,43.873 -8.951,43.743 12.859,8.178 C 14.156,6.089 14.718,4.225 14.544,2.585 14.369,0.944 13.294,-0.699 11.319,-2.342 9.76,-3.64 8.023,-4.25 6.108,-4.169 c -1.915,0.081 -3.587,0.98 -5.016,2.698 -0.174,0.208 -0.359,0.43 -0.553,0.664 -0.194,0.234 -0.352,0.476 -0.475,0.729 z"
             style="fill:#000000;fill-opacity:1;fill-rule:nonzero;stroke:none"
             id="path186" /></g><g
            id="g188"
            transform="translate(263.6201,844.5596)"><path
             d="m 0,0 -28.698,47.849 c -1.287,2.145 -1.806,4.258 -1.557,6.341 0.249,2.081 1.534,3.819 3.855,5.21 l 21.523,13.028 c 2.123,1.194 4.065,1.471 5.828,0.834 1.763,-0.64 3.097,-1.712 4.001,-3.22 0.035,-0.058 0.062,-0.102 0.078,-0.13 0.019,-0.03 0.045,-0.073 0.079,-0.13 C 5.921,68.296 6.161,66.646 5.83,64.832 5.5,63.016 4.347,61.517 2.376,60.335 L -12.988,51.239 -5.37,38.537 8.897,47.094 c 2.181,1.228 4.168,1.533 5.959,0.912 1.793,-0.621 3.141,-1.685 4.045,-3.193 0.036,-0.058 0.061,-0.102 0.078,-0.13 0.018,-0.03 0.044,-0.074 0.079,-0.131 0.811,-1.485 1.038,-3.144 0.677,-4.975 -0.36,-1.834 -1.554,-3.358 -3.585,-4.576 L 1.883,26.444 9.762,13.308 25.856,22.96 c 2.123,1.194 4.066,1.472 5.829,0.834 1.762,-0.639 3.097,-1.711 4.001,-3.219 0.035,-0.058 0.061,-0.101 0.079,-0.13 0.017,-0.03 0.044,-0.073 0.078,-0.131 0.811,-1.485 1.043,-3.12 0.694,-4.906 -0.348,-1.787 -1.509,-3.271 -3.479,-4.453 L 10.611,-2.507 C 8.698,-3.655 6.755,-4.033 4.783,-3.637 2.812,-3.243 1.234,-2.06 0.052,-0.087 Z"
             style="fill:#000000;fill-opacity:1;fill-rule:nonzero;stroke:none"
             id="path190" /></g><g
            id="g192"
            transform="translate(302.2979,867.7764)"><path
             d="m 0,0 -22.843,52.986 c -0.992,2.3 -1.09,4.361 -0.29,6.181 0.799,1.819 2.192,3.158 4.18,4.015 0.373,0.16 0.796,0.288 1.271,0.382 0.474,0.094 0.97,0.142 1.485,0.143 0.755,-0.044 1.537,-0.149 2.345,-0.314 0.808,-0.168 1.506,-0.419 2.093,-0.755 L 34.72,36.056 34.906,36.137 19.726,71.35 c -0.991,2.297 -1.087,4.355 -0.287,6.173 0.799,1.818 2.193,3.155 4.181,4.013 1.986,0.856 3.916,0.949 5.788,0.282 1.871,-0.669 3.318,-2.185 4.336,-4.547 L 56.547,24.378 c 1.018,-2.364 1.128,-4.456 0.329,-6.274 -0.8,-1.82 -2.192,-3.158 -4.18,-4.015 -0.372,-0.16 -0.803,-0.272 -1.291,-0.336 -0.489,-0.062 -0.977,-0.126 -1.465,-0.189 -0.728,-0.021 -1.497,0.054 -2.304,0.222 -0.809,0.165 -1.506,0.417 -2.093,0.754 L -0.816,40.842 -1.002,40.762 13.978,6.014 C 14.996,3.653 15.104,1.564 14.305,-0.252 13.504,-2.072 12.11,-3.408 10.124,-4.264 8.136,-5.122 6.206,-5.216 4.335,-4.547 2.463,-3.88 1.032,-2.395 0.04,-0.093 Z"
             style="fill:#000000;fill-opacity:1;fill-rule:nonzero;stroke:none"
             id="path194" /></g><g
            id="g196"
            transform="translate(377.6377,897.1069)"><path
             d="M 0,0 -13.646,49.063 -24.3,46.1 c -2.262,-0.7 -4.084,-0.522 -5.465,0.533 -1.381,1.054 -2.331,2.388 -2.849,3.999 -0.019,0.064 -0.032,0.113 -0.041,0.146 -0.009,0.033 -0.023,0.081 -0.041,0.147 -0.471,1.694 -0.33,3.399 0.419,5.118 0.75,1.717 2.168,2.867 4.254,3.447 L 7.916,69.591 c 2.103,0.514 3.937,0.235 5.498,-0.84 1.564,-1.075 2.58,-2.459 3.051,-4.152 0.018,-0.066 0.032,-0.115 0.041,-0.147 0.009,-0.034 0.022,-0.083 0.041,-0.147 0.387,-1.647 0.245,-3.284 -0.425,-4.909 C 15.45,57.77 13.975,56.64 11.694,56.006 L 1.015,53.141 14.66,4.078 c 0.69,-2.477 0.514,-4.561 -0.524,-6.254 -1.039,-1.694 -2.601,-2.829 -4.685,-3.409 -2.087,-0.58 -4.01,-0.414 -5.773,0.501 -1.764,0.912 -2.98,2.575 -3.651,4.986 z"
             style="fill:#000000;fill-opacity:1;fill-rule:nonzero;stroke:none"
             id="path198" /></g><g
            id="g200"
            transform="translate(483.1338,927.1104)"><path
             d="m 0,0 c 2.81,4.908 3.999,10.432 3.57,16.572 -0.429,6.138 -2.394,11.441 -5.892,15.909 -3.5,4.467 -8.42,6.479 -14.761,6.036 -6.342,-0.444 -10.935,-3.117 -13.778,-8.017 -2.845,-4.901 -4.051,-10.413 -3.623,-16.539 0.428,-6.126 2.375,-11.419 5.839,-15.878 3.464,-4.46 8.4,-6.465 14.81,-6.017 C -7.421,-7.553 -2.809,-4.909 0,0 m -38.705,-12.927 c -6.978,6.698 -10.831,15.275 -11.563,25.734 -0.736,10.524 1.868,19.587 7.811,27.19 5.941,7.6 14.075,11.763 24.397,12.485 C -7.873,53.194 0.73,50.135 7.751,43.304 14.771,36.473 18.64,27.93 19.357,17.676 20.089,7.217 17.499,-1.811 11.591,-9.41 c -5.91,-7.6 -14.061,-11.762 -24.449,-12.489 -10.256,-0.717 -18.871,2.273 -25.847,8.972"
             style="fill:#000000;fill-opacity:1;fill-rule:nonzero;stroke:none"
             id="path202" /></g><g
            id="g204"
            transform="translate(509.5293,915.0361)"><path
             d="m 0,0 3.601,56.899 c 0.128,2.025 0.933,3.786 2.418,5.285 1.483,1.498 3.474,2.169 5.972,2.011 l 25.925,-1.539 c 2.223,-0.209 3.861,-1.075 4.918,-2.598 1.055,-1.525 1.527,-3.164 1.416,-4.918 -0.004,-0.068 -0.007,-0.119 -0.009,-0.152 -0.003,-0.035 -0.006,-0.086 -0.01,-0.152 -0.174,-1.684 -0.862,-3.183 -2.063,-4.495 -1.201,-1.313 -2.916,-1.899 -5.143,-1.758 L 18.402,49.863 17.467,35.082 33.16,34.088 c 2.425,-0.221 4.2,-1.078 5.326,-2.573 1.125,-1.494 1.632,-3.119 1.521,-4.873 -0.111,-1.756 -0.82,-3.338 -2.13,-4.745 -1.309,-1.408 -3.178,-2.035 -5.607,-1.881 L 16.576,21.009 15.185,-0.988 C 15.022,-3.544 14.173,-5.45 12.638,-6.703 11.1,-7.956 9.253,-8.514 7.093,-8.377 4.933,-8.241 3.17,-7.453 1.805,-6.01 c -1.368,1.442 -1.97,3.411 -1.812,5.909 z"
             style="fill:#000000;fill-opacity:1;fill-rule:nonzero;stroke:none"
             id="path206" /></g><g
            id="g208"
            transform="translate(602.0674,924.1162)"><path
             d="m 0,0 18.677,-4.763 -1.873,30.839 -0.197,0.049 z M -25.377,-12.478 8.018,35.958 c 1.419,2.011 3.248,3.569 5.484,4.674 2.234,1.105 4.598,1.34 7.089,0.705 2.621,-0.668 4.62,-1.999 5.997,-3.989 1.377,-1.992 2.19,-4.275 2.44,-6.852 l 5.657,-58.29 c 0.109,-0.936 0.13,-1.745 0.061,-2.424 -0.068,-0.681 -0.144,-1.185 -0.228,-1.512 -0.485,-1.901 -1.55,-3.269 -3.194,-4.106 -1.644,-0.837 -3.385,-1.021 -5.219,-0.554 -2.031,0.518 -3.483,1.395 -4.354,2.629 -0.873,1.233 -1.387,2.638 -1.543,4.214 l -0.567,10.091 -27.328,6.969 -5.28,-8.39 c -0.86,-1.456 -1.969,-2.518 -3.324,-3.184 -1.357,-0.664 -3.052,-0.739 -5.082,-0.222 -1.966,0.502 -3.508,1.575 -4.623,3.221 -1.116,1.645 -1.423,3.451 -0.922,5.417 0.134,0.524 0.283,0.975 0.449,1.352 0.165,0.376 0.356,0.71 0.572,1.005 0.097,0.115 0.184,0.249 0.259,0.405 0.075,0.155 0.153,0.258 0.236,0.307 z"
             style="fill:#000000;fill-opacity:1;fill-rule:nonzero;stroke:none"
             id="path210" /></g><g
            id="g212"
            transform="translate(705.6807,903.0327)"><path
             d="m 0,0 c 2.895,-1.315 4.659,-2.991 5.294,-5.03 0.634,-2.037 0.312,-4.549 -0.968,-7.532 -3.865,-9.013 -9.812,-15.329 -17.84,-18.951 -8.029,-3.621 -16.705,-3.433 -26.028,0.565 -9.448,4.052 -15.742,10.651 -18.884,19.799 -3.141,9.147 -2.647,18.537 1.486,28.172 4.158,9.697 10.617,16.566 19.378,20.609 8.76,4.043 17.898,4.026 27.408,-0.052 C -3.194,34.595 2.199,30.698 6.027,25.894 9.853,21.088 11.166,17.029 9.967,13.718 9.94,13.655 9.92,13.609 9.907,13.578 9.894,13.546 9.873,13.5 9.848,13.438 8.994,11.448 7.755,10.103 6.13,9.403 4.505,8.701 2.884,8.698 1.268,9.391 c -0.996,0.426 -1.83,0.967 -2.504,1.626 -0.675,0.656 -1.292,1.362 -1.851,2.118 -0.303,0.497 -0.611,0.979 -0.926,1.445 -0.315,0.467 -0.641,0.993 -0.978,1.579 -0.959,1.367 -2.218,2.808 -3.776,4.323 -1.558,1.514 -3.861,2.926 -6.905,4.231 -5.844,2.506 -11.152,2.225 -15.925,-0.842 -4.775,-3.068 -8.374,-7.43 -10.799,-13.085 -2.426,-5.657 -3.12,-11.265 -2.083,-16.823 1.039,-5.561 4.509,-9.605 10.415,-12.137 0.434,-0.187 0.876,-0.359 1.325,-0.513 0.447,-0.156 0.903,-0.296 1.365,-0.42 3.48,-0.979 7.09,-0.927 10.83,0.157 3.737,1.082 6.621,3.985 8.647,8.709 l -9.51,4.078 c -1.954,0.765 -3.273,2.021 -3.957,3.771 -0.685,1.749 -0.609,3.6 0.229,5.555 0.865,2.018 2.195,3.314 3.987,3.89 1.792,0.575 3.557,0.491 5.298,-0.256 z"
             style="fill:#000000;fill-opacity:1;fill-rule:nonzero;stroke:none"
             id="path214" /></g><g
            id="g216"
            transform="translate(734.1494,884.0522)"><path
             d="m 0,0 8.9,-5.474 c 2.327,-1.51 4.654,-2.048 6.986,-1.616 2.329,0.432 4.239,1.859 5.727,4.278 1.523,2.477 1.935,4.825 1.235,7.042 -0.702,2.218 -2.233,4.052 -4.594,5.505 l -8.848,5.56 z m -30.233,-20.113 29.866,48.564 c 1.24,2.016 2.807,3.276 4.704,3.776 1.895,0.502 3.91,0.097 6.042,-1.214 l 15.262,-9.267 c 6.646,-4.167 10.928,-8.984 12.846,-14.451 1.918,-5.467 0.786,-11.6 -3.393,-18.397 -2.906,-4.725 -6.755,-7.499 -11.549,-8.321 -4.794,-0.824 -9.621,-0.216 -14.482,1.82 l 5.072,-24.674 c 0.208,-1.081 0.247,-2.019 0.117,-2.812 -0.132,-0.794 -0.392,-1.507 -0.78,-2.14 -1.029,-1.671 -2.564,-2.812 -4.606,-3.42 -2.042,-0.611 -4.013,-0.33 -5.915,0.838 -0.346,0.213 -0.687,0.464 -1.026,0.751 -0.34,0.289 -0.646,0.596 -0.921,0.924 -0.447,0.435 -0.82,0.96 -1.113,1.578 -0.296,0.617 -0.504,1.281 -0.622,1.99 l -4.835,35.129 -0.173,0.106 -11.532,-18.751 c -1.347,-2.19 -2.995,-3.479 -4.941,-3.87 -1.948,-0.39 -3.843,-0.018 -5.685,1.116 -1.845,1.134 -3.032,2.656 -3.561,4.571 -0.531,1.914 -0.14,3.936 1.172,6.068 z"
             style="fill:#000000;fill-opacity:1;fill-rule:nonzero;stroke:none"
             id="path218" /></g><g
            id="g220"
            transform="translate(750.5615,833.9585)"><path
             d="m 0,0 34.609,46.169 c 1.502,2.004 3.241,3.113 5.218,3.325 1.975,0.211 3.829,-0.331 5.562,-1.629 1.731,-1.298 2.771,-2.926 3.124,-4.882 0.35,-1.956 -0.246,-3.964 -1.789,-6.022 L 12.176,-9.127 c -1.544,-2.06 -3.304,-3.195 -5.279,-3.406 -1.977,-0.212 -3.831,0.331 -5.561,1.629 -1.733,1.299 -2.774,2.925 -3.124,4.882 -0.353,1.955 0.225,3.936 1.727,5.941 z"
             style="fill:#000000;fill-opacity:1;fill-rule:nonzero;stroke:none"
             id="path222" /></g><g
            id="g224"
            transform="translate(786.9668,843.4858)"><path
             d="m 0,0 c 7.077,7.732 15.418,12.062 25.023,12.989 9.604,0.927 18.224,-2.103 25.857,-9.09 0.897,-0.821 1.861,-1.796 2.893,-2.923 1.031,-1.128 2.005,-2.341 2.925,-3.641 1.987,-2.736 3.419,-5.629 4.297,-8.678 0.875,-3.049 0.31,-5.671 -1.699,-7.865 -1.233,-1.347 -2.731,-2.131 -4.491,-2.353 -1.763,-0.221 -3.341,0.308 -4.738,1.586 -0.299,0.274 -0.564,0.562 -0.792,0.863 -0.229,0.3 -0.445,0.59 -0.648,0.868 -0.313,0.561 -0.627,1.145 -0.939,1.754 -0.316,0.609 -0.609,1.266 -0.877,1.972 -0.576,1.076 -1.286,2.253 -2.131,3.532 -0.848,1.278 -2.068,2.649 -3.664,4.11 -4.64,4.247 -9.686,5.772 -15.137,4.573 -5.452,-1.198 -10.279,-4.093 -14.48,-8.682 -4.065,-4.44 -6.406,-9.402 -7.025,-14.886 -0.619,-5.484 1.365,-10.327 5.955,-14.528 1.596,-1.461 3.115,-2.556 4.561,-3.281 1.444,-0.726 2.797,-1.301 4.061,-1.724 0.922,-0.293 1.809,-0.578 2.658,-0.851 0.85,-0.275 1.594,-0.612 2.236,-1.015 0.243,-0.133 0.465,-0.267 0.664,-0.401 0.196,-0.135 0.395,-0.293 0.595,-0.476 1.147,-1.05 1.796,-2.219 1.95,-3.504 0.151,-1.287 0.037,-2.489 -0.343,-3.606 -0.122,-0.532 -0.304,-1.007 -0.548,-1.424 -0.245,-0.418 -0.504,-0.777 -0.778,-1.076 -2.192,-2.394 -4.896,-3.268 -8.106,-2.619 -3.213,0.647 -6.246,1.866 -9.1,3.654 -1.573,0.889 -3.001,1.831 -4.29,2.826 -1.288,0.997 -2.408,1.929 -3.355,2.796 -7.584,6.942 -11.348,15.247 -11.297,24.919 0.051,9.671 3.616,18.373 10.695,26.106 z"
             style="fill:#000000;fill-opacity:1;fill-rule:nonzero;stroke:none"
             id="path226" /></g><g
            id="g228"
            transform="translate(830.3818,793.1602)"><path
             d="m 0,0 28.188,22.815 c 1.948,1.576 3.905,2.227 5.874,1.948 1.966,-0.278 3.631,-1.257 4.994,-2.94 1.361,-1.682 1.971,-3.514 1.835,-5.497 -0.139,-1.983 -1.208,-3.784 -3.209,-5.403 L 10.194,-11.326 c -3.686,-2.983 -5.911,-6.589 -6.672,-10.816 -0.763,-4.227 0.368,-8.206 3.389,-11.94 2.893,-3.574 6.546,-5.424 10.962,-5.548 4.415,-0.124 8.36,1.219 11.836,4.033 l 27.645,22.376 c 1.949,1.576 3.906,2.227 5.875,1.948 1.966,-0.278 3.631,-1.257 4.994,-2.94 1.361,-1.682 1.971,-3.515 1.835,-5.497 -0.139,-1.982 -1.208,-3.784 -3.207,-5.402 L 38.74,-47.864 c -6.685,-5.411 -14.144,-7.553 -22.373,-6.428 -8.23,1.126 -14.983,4.949 -20.259,11.467 -5.319,6.572 -7.685,13.988 -7.097,22.25 0.588,8.263 4.224,15.1 10.91,20.511 z"
             style="fill:#000000;fill-opacity:1;fill-rule:nonzero;stroke:none"
             id="path230" /></g><g
            id="g232"
            transform="translate(856.8262,725.8804)"><path
             d="m 0,0 48.261,29.736 c 2.132,1.314 4.156,1.709 6.073,1.181 1.915,-0.528 3.441,-1.711 4.577,-3.555 1.135,-1.842 1.506,-3.737 1.117,-5.687 -0.391,-1.948 -1.682,-3.598 -3.875,-4.949 L 12.81,-9.981 22.282,-25.354 c 1.148,-1.993 1.476,-3.816 0.987,-5.469 -0.492,-1.653 -1.318,-2.957 -2.477,-3.909 -0.138,-0.164 -0.279,-0.291 -0.422,-0.379 -0.144,-0.089 -0.274,-0.169 -0.389,-0.24 l -0.085,-0.053 -0.087,-0.054 c -1.476,-0.829 -3.126,-1.05 -4.952,-0.667 -1.826,0.385 -3.323,1.527 -4.494,3.427 L -2.94,-11.106 c -1.314,2.131 -1.7,4.177 -1.158,6.138 0.541,1.963 1.878,3.6 4.012,4.915 z"
             style="fill:#000000;fill-opacity:1;fill-rule:nonzero;stroke:none"
             id="path234" /></g><g
            id="g236"
            transform="translate(878.042,688.0835)"><path
             d="m 0,0 45.335,23.199 -5.037,9.843 c -1.14,2.078 -1.33,3.898 -0.572,5.462 0.755,1.564 1.872,2.762 3.346,3.593 0.059,0.03 0.105,0.053 0.135,0.07 0.03,0.015 0.075,0.038 0.136,0.069 1.564,0.801 3.264,1.004 5.098,0.615 1.832,-0.391 3.243,-1.55 4.229,-3.477 L 69.767,6.187 c 0.924,-1.958 1.018,-3.81 0.279,-5.556 -0.741,-1.746 -1.894,-3.02 -3.458,-3.82 -0.061,-0.032 -0.106,-0.055 -0.136,-0.07 -0.031,-0.016 -0.076,-0.039 -0.136,-0.069 -1.536,-0.71 -3.169,-0.899 -4.894,-0.568 -1.728,0.333 -3.13,1.552 -4.208,3.659 L 52.268,9.653 6.933,-13.546 c -2.289,-1.171 -4.367,-1.417 -6.232,-0.739 -1.868,0.679 -3.293,1.981 -4.279,3.908 -0.986,1.927 -1.209,3.845 -0.666,5.755 0.541,1.912 1.926,3.436 4.154,4.576 z"
             style="fill:#000000;fill-opacity:1;fill-rule:nonzero;stroke:none"
             id="path238" /></g><g
            id="g240"
            transform="translate(914.2988,664.4448)"><path
             d="m 0,0 34.22,12.005 c 2.363,0.829 4.426,0.783 6.186,-0.141 C 42.165,10.94 43.403,9.458 44.12,7.415 44.837,5.374 44.795,3.442 43.999,1.621 43.202,-0.199 41.59,-1.536 39.16,-2.388 L 5.791,-14.095 c -4.476,-1.57 -7.783,-4.217 -9.922,-7.942 -2.14,-3.724 -2.414,-7.851 -0.824,-12.383 1.522,-4.34 4.34,-7.31 8.457,-8.913 4.116,-1.602 8.283,-1.663 12.503,-0.183 l 33.56,11.774 c 2.366,0.829 4.427,0.784 6.188,-0.141 1.759,-0.924 2.998,-2.406 3.715,-4.449 0.716,-2.042 0.675,-3.973 -0.121,-5.794 -0.798,-1.82 -2.41,-3.157 -4.838,-4.008 L 20.384,-58.106 c -8.115,-2.847 -15.861,-2.355 -23.233,1.472 -7.372,3.829 -12.445,9.7 -15.22,17.613 -2.799,7.978 -2.534,15.758 0.799,23.341 3.333,7.584 9.058,12.799 17.174,15.646 z"
             style="fill:#000000;fill-opacity:1;fill-rule:nonzero;stroke:none"
             id="path242" /></g><g
            id="g244"
            transform="translate(951.0918,583.5933)"><path
             d="m 0,0 2.003,-10.255 c 0.464,-2.734 1.644,-4.811 3.543,-6.233 1.895,-1.421 4.238,-1.86 7.026,-1.316 2.854,0.557 4.86,1.846 6.017,3.863 1.156,2.018 1.469,4.387 0.937,7.108 L 17.623,3.441 Z m -35.274,8.617 55.955,10.925 c 2.323,0.454 4.311,0.154 5.965,-0.902 1.653,-1.055 2.719,-2.81 3.199,-5.267 l 3.521,-17.504 c 1.437,-7.712 0.794,-14.125 -1.929,-19.24 -2.722,-5.113 -8,-8.436 -15.832,-9.965 -5.443,-1.063 -10.091,-0.11 -13.943,2.859 -3.853,2.969 -6.677,6.931 -8.472,11.886 l -14.715,-20.445 c -0.655,-0.885 -1.318,-1.549 -1.99,-1.99 -0.672,-0.442 -1.373,-0.733 -2.102,-0.876 -1.926,-0.376 -3.805,-0.019 -5.636,1.07 -1.832,1.089 -2.962,2.729 -3.39,4.92 -0.077,0.398 -0.124,0.82 -0.143,1.264 -0.017,0.445 0.002,0.878 0.057,1.303 0.016,0.623 0.15,1.254 0.406,1.888 0.254,0.636 0.6,1.238 1.043,1.806 l 22.566,27.353 -0.039,0.198 -21.605,-4.218 c -2.524,-0.493 -4.587,-0.155 -6.194,1.013 -1.607,1.169 -2.616,2.814 -3.031,4.938 -0.415,2.125 -0.099,4.029 0.951,5.715 1.049,1.688 2.801,2.77 5.258,3.249 z"
             style="fill:#000000;fill-opacity:1;fill-rule:nonzero;stroke:none"
             id="path246" /></g><g
            id="g248"
            transform="translate(925.9619,537.896)"><path
             d="m 0,0 55.639,4.181 c 2.494,0.187 4.616,-0.297 6.366,-1.455 1.748,-1.156 2.724,-3.084 2.927,-5.782 l 1.986,-25.08 c 0.114,-2.434 -0.509,-4.294 -1.869,-5.583 -1.363,-1.288 -2.92,-2 -4.673,-2.132 -0.067,-0.005 -0.118,-0.009 -0.151,-0.012 -0.036,-0.002 -0.085,-0.006 -0.152,-0.011 -1.692,-0.058 -3.275,0.466 -4.748,1.577 -1.473,1.109 -2.297,2.812 -2.469,5.104 l -1.236,17.812 -14.769,-1.11 1.246,-16.591 c 0.12,-2.499 -0.499,-4.412 -1.858,-5.734 -1.36,-1.323 -2.916,-2.051 -4.669,-2.183 -0.067,-0.004 -0.118,-0.008 -0.151,-0.01 -0.035,-0.003 -0.085,-0.007 -0.151,-0.012 -1.693,-0.059 -3.277,0.483 -4.751,1.627 -1.478,1.144 -2.304,2.896 -2.481,5.256 L 22.789,-13.547 7.514,-14.695 8.92,-33.411 c 0.114,-2.432 -0.509,-4.293 -1.869,-5.583 -1.363,-1.288 -2.919,-1.999 -4.672,-2.131 -0.068,-0.005 -0.119,-0.008 -0.152,-0.011 -0.035,-0.003 -0.085,-0.007 -0.152,-0.012 -1.691,-0.059 -3.257,0.468 -4.696,1.58 -1.441,1.112 -2.247,2.817 -2.419,5.109 L -7.001,-8.36 c -0.168,2.226 0.366,4.132 1.605,5.716 1.237,1.586 3.001,2.464 5.295,2.636 z"
             style="fill:#000000;fill-opacity:1;fill-rule:nonzero;stroke:none"
             id="path250" /></g></g></g>
    </g>
</svg>
